<svg width="23" height="23" viewBox="0 0 23 23" fill="none" xmlns="http://www.w3.org/2000/svg">
<path d="M1.04102 0.0996094H3.43457C3.84407 0.0996346 4.24263 0.211536 4.57617 0.417969C4.9097 0.624421 5.16156 0.915059 5.29883 1.24902L5.94336 2.81445L5.97461 2.88867L6.05371 2.875C6.11642 2.864 6.18014 2.85762 6.24414 2.85742H21.8555C22.0093 2.85736 22.1605 2.89062 22.2959 2.95312C22.4314 3.01567 22.5463 3.10602 22.6318 3.21484C22.7171 3.3234 22.7707 3.44727 22.7891 3.57617C22.8074 3.70527 22.7902 3.83731 22.7383 3.95996L20.418 9.42383C20.1139 10.1325 19.5726 10.7457 18.8633 11.1797C18.1539 11.6137 17.3104 11.8472 16.4453 11.8496H7.28516C6.98643 11.8496 6.69799 11.9551 6.4834 12.1445C6.26844 12.3344 6.14458 12.5946 6.14453 12.8691C6.14453 13.1437 6.26839 13.4048 6.4834 13.5947C6.69796 13.784 6.98658 13.8887 7.28516 13.8887H19.7734C20.0267 13.8887 20.2676 13.9776 20.4434 14.1328C20.6187 14.2877 20.7148 14.495 20.7148 14.708C20.7148 14.9209 20.6186 15.1284 20.4434 15.2832C20.2676 15.4383 20.0266 15.5273 19.7734 15.5273H7.28711C6.53345 15.5087 5.81646 15.2427 5.27539 14.7842C4.73448 14.3257 4.40876 13.7076 4.35742 13.0527C4.30619 12.3981 4.53206 11.7482 4.99512 11.2295C5.4586 10.7104 6.12661 10.3602 6.87012 10.25L6.99707 10.2305L6.94824 10.1123L3.52637 1.80078L3.50098 1.73828H1.04102C0.78779 1.73828 0.546832 1.64937 0.371094 1.49414C0.195776 1.33927 0.0996094 1.13192 0.0996094 0.918945C0.0996966 0.706061 0.195837 0.498549 0.371094 0.34375C0.54681 0.188666 0.787914 0.0996094 1.04102 0.0996094ZM6.69043 4.63379L8.96191 10.1494L8.9873 10.2119H16.4463C16.9234 10.2111 17.3902 10.0818 17.7842 9.84082C18.1781 9.5998 18.4821 9.25738 18.6533 8.85742V8.85645L20.4385 4.63477L20.4971 4.49609H6.63379L6.69043 4.63379Z" fill="white" stroke="#978A74" stroke-width="0.2"/>
<path d="M8.32556 16.6459C8.92577 16.6459 9.51173 16.8035 10.0092 17.097C10.5066 17.3906 10.8924 17.807 11.1195 18.2914C11.3464 18.7754 11.4058 19.3069 11.2904 19.8197C11.1749 20.3328 10.8891 20.8064 10.4672 21.1791C10.0451 21.5518 9.50588 21.8071 8.91736 21.9105C8.32896 22.0139 7.71906 21.9607 7.16541 21.7582C6.61166 21.5556 6.13964 21.2129 5.80896 20.7758C5.47856 20.3389 5.30312 19.8266 5.3031 19.3041C5.3031 18.6036 5.61839 17.9287 6.18396 17.4291C6.75002 16.9291 7.52034 16.6459 8.32556 16.6459ZM8.32556 18.2845C8.10256 18.2846 7.88373 18.3431 7.69666 18.4535C7.50956 18.5639 7.36175 18.7221 7.2738 18.9095C7.18576 19.0973 7.16229 19.3049 7.2074 19.5052C7.25247 19.7054 7.36354 19.8871 7.5238 20.0287C7.68384 20.17 7.88605 20.2656 8.10486 20.3041C8.32378 20.3425 8.55133 20.3231 8.75818 20.2474C8.96503 20.1718 9.14413 20.0428 9.27087 19.8754C9.39775 19.7077 9.46616 19.5086 9.46619 19.3041C9.46619 19.0295 9.34233 18.7694 9.12732 18.5795C8.91271 18.3899 8.62436 18.2845 8.32556 18.2845Z" fill="white" stroke="#978A74" stroke-width="0.2"/>
<path d="M17.692 16.6459C18.4973 16.6459 19.2675 16.9291 19.8336 17.4291C20.3992 17.9287 20.7145 18.6035 20.7145 19.3041C20.7145 19.8267 20.5391 20.3389 20.2086 20.7758C19.8779 21.2129 19.4059 21.5556 18.8522 21.7582C18.2985 21.9607 17.6886 22.0139 17.1002 21.9105C16.5117 21.8071 15.9725 21.5519 15.5504 21.1791C15.1285 20.8064 14.8427 20.3328 14.7272 19.8197C14.6118 19.307 14.6712 18.7753 14.8981 18.2914C15.1252 17.807 15.511 17.3906 16.0084 17.097C16.5059 16.8035 17.0918 16.6459 17.692 16.6459ZM17.4713 18.3041C17.2525 18.3426 17.0503 18.4381 16.8903 18.5795C16.73 18.721 16.6189 18.9028 16.5739 19.1029C16.5288 19.3032 16.5522 19.5109 16.6403 19.6986C16.7282 19.8859 16.8761 20.0443 17.0631 20.1547C17.2502 20.265 17.4691 20.3236 17.692 20.3236C17.9908 20.3236 18.2792 20.2182 18.4938 20.0287C18.7088 19.8388 18.8326 19.5786 18.8326 19.3041C18.8326 19.0995 18.7642 18.9005 18.6373 18.7328C18.5106 18.5653 18.3315 18.4364 18.1246 18.3607C17.9178 18.2851 17.6903 18.2656 17.4713 18.3041Z" fill="white" stroke="#978A74" stroke-width="0.2"/>
</svg>
