<svg width="16" height="22" viewBox="0 0 16 22" fill="none" xmlns="http://www.w3.org/2000/svg">
<path d="M8 12.1748C12.3124 12.1748 15.7998 15.5841 15.7998 19.7803V20.9209C15.7996 21.4016 15.3984 21.7998 14.8936 21.7998H1.10645C0.601599 21.7998 0.200404 21.4016 0.200195 20.9209V19.7803C0.20023 15.5844 3.68734 12.1748 8 12.1748ZM8 13.9336C4.69868 13.9336 2.01273 16.546 2.0127 19.7803V20.041H13.9873V19.7803C13.9873 16.546 11.3026 13.9336 8 13.9336ZM7.99219 0.200195C10.8386 0.20033 13.1365 2.45035 13.1367 5.21484C13.1367 7.9794 10.8388 10.2303 7.99219 10.2305C5.1468 10.2305 2.84863 7.9796 2.84863 5.21484C2.84881 2.45032 5.1468 0.200195 7.99219 0.200195ZM7.99219 1.95898C6.15671 1.95898 4.66131 3.41222 4.66113 5.21484C4.66113 7.01756 6.15657 8.47168 7.99219 8.47168C9.82759 8.47155 11.3242 7.01757 11.3242 5.21484C11.324 3.41226 9.82745 1.95912 7.99219 1.95898Z" fill="white" stroke="#867860" stroke-width="0.4"/>
</svg>
