<svg width="15" height="15" viewBox="0 0 15 15" fill="none" xmlns="http://www.w3.org/2000/svg">
<path d="M13.0556 15C13.5713 15 14.0658 14.7951 14.4305 14.4305C14.7951 14.0658 15 13.5713 15 13.0556V10.8333C15 10.3176 14.7951 9.82306 14.4305 9.4584C14.0658 9.09375 13.5713 8.88889 13.0556 8.88889H9.37778L6.80556 11.4611C5.50672 10.6046 4.39536 9.49329 3.53889 8.19444L6.11111 5.62222V1.94444C6.11111 1.42875 5.90625 0.934169 5.5416 0.569515C5.17694 0.204861 4.68237 0 4.16667 0H1.94444C1.42875 0 0.934169 0.204861 0.569515 0.569515C0.204861 0.934169 0 1.42875 0 1.94444C0.0036765 5.40587 1.38035 8.72446 3.82794 11.1721C6.27554 13.6197 9.59414 14.9963 13.0556 15ZM10.0667 10.5556H13.0556C13.1292 10.5556 13.1999 10.5848 13.252 10.6369C13.3041 10.689 13.3333 10.7597 13.3333 10.8333V13.0556C13.3333 13.1292 13.3041 13.1999 13.252 13.252C13.1999 13.3041 13.1292 13.3333 13.0556 13.3333C11.4256 13.3338 9.81485 12.9823 8.33333 12.3028L10.0667 10.5556ZM1.66667 1.94444C1.66667 1.87077 1.69593 1.80012 1.74803 1.74803C1.80012 1.69593 1.87077 1.66667 1.94444 1.66667H4.16667C4.24034 1.66667 4.31099 1.69593 4.36309 1.74803C4.41518 1.80012 4.44444 1.87077 4.44444 1.94444V4.93333L2.69722 6.66667C2.01781 5.18512 1.66628 3.57435 1.66667 1.94444Z" fill="#FFB639"/>
</svg>
