<svg width="20" height="18" viewBox="0 0 20 18" fill="none" xmlns="http://www.w3.org/2000/svg">
<path d="M9.56434 17.8527C3.36434 13.2632 0 10.0167 0 6.02253C0 2.58906 2.29989 0 5.35726 0C7.68594 0 9.2144 1.27371 10 2.16668C10.7857 1.27371 12.3143 0 14.6427 0C17.6999 0 20 2.58906 20 6.02253C20 10.0235 16.6357 13.2703 10.4357 17.8598C10.1785 18.0467 9.82137 18.0467 9.57138 17.8598L9.56434 17.8527ZM5.35726 1.38447C3.1144 1.38447 1.42857 3.3781 1.42857 6.02253C1.42857 9.35898 4.43566 12.2872 10 16.4337C15.5643 12.2803 18.5714 9.35898 18.5714 6.02253C18.5714 3.3781 16.8857 1.38447 14.6427 1.38447C11.9641 1.38447 10.6357 3.66186 10.6286 3.68268C10.3786 4.12571 9.62857 4.12571 9.37856 3.68268C9.32142 3.58576 8.01426 1.3776 5.35707 1.3776L5.35726 1.38447Z" fill="white"/>
</svg>
