<svg width="17" height="15" viewBox="0 0 17 15" fill="none" xmlns="http://www.w3.org/2000/svg">
<path d="M13.9839 0H3.01613C2.2162 0 1.44904 0.321924 0.883404 0.894951C0.31777 1.46798 0 2.24517 0 3.05556V11.9444C0 12.7548 0.31777 13.532 0.883404 14.105C1.44904 14.6781 2.2162 15 3.01613 15H13.9839C14.7838 15 15.551 14.6781 16.1166 14.105C16.6822 13.532 17 12.7548 17 11.9444V3.05556C17 2.24517 16.6822 1.46798 16.1166 0.894951C15.551 0.321924 14.7838 0 13.9839 0ZM3.01613 1.66667H13.9839C14.3475 1.66667 14.6962 1.813 14.9533 2.07346C15.2104 2.33393 15.3548 2.6872 15.3548 3.05556V3.41945L10.0108 7.28611C9.57049 7.60385 9.04334 7.7746 8.50274 7.7746C7.96214 7.7746 7.43499 7.60385 6.99468 7.28611L1.64516 3.41945V3.05556C1.64516 2.6872 1.7896 2.33393 2.04671 2.07346C2.30381 1.813 2.65253 1.66667 3.01613 1.66667ZM13.9839 13.3333H3.01613C2.65253 13.3333 2.30381 13.187 2.04671 12.9265C1.7896 12.6661 1.64516 12.3128 1.64516 11.9444V5.46944L6.03226 8.64444C6.75226 9.16567 7.61507 9.44587 8.5 9.44587C9.38493 9.44587 10.2477 9.16567 10.9677 8.64444L15.3548 5.46944V11.9444C15.3548 12.3128 15.2104 12.6661 14.9533 12.9265C14.6962 13.187 14.3475 13.3333 13.9839 13.3333Z" fill="#FFB639"/>
</svg>
